<?xml version="1.0" encoding="UTF-8"?>
<!DOCTYPE svg PUBLIC "-//W3C//DTD SVG 1.1//EN" "http://www.w3.org/Graphics/SVG/1.1/DTD/svg11.dtd">
<svg xmlns="http://www.w3.org/2000/svg" version="1.1" width="345px" height="344px" style="shape-rendering:geometricPrecision; text-rendering:geometricPrecision; image-rendering:optimizeQuality; fill-rule:evenodd; clip-rule:evenodd" xmlns:xlink="http://www.w3.org/1999/xlink">
<g><path style="opacity:0.998" fill="#f3f3f3" d="M 89.5,5.5 C 147.525,5.03224 205.525,5.53224 263.5,7C 298.071,14.2361 321.571,34.4028 334,67.5C 336.086,74.3503 337.42,81.3503 338,88.5C 338.667,143.833 338.667,199.167 338,254.5C 331.408,299.425 305.908,326.592 261.5,336C 202.5,336.667 143.5,336.667 84.5,336C 46.8837,328.718 22.0504,306.884 10,270.5C 8.35272,263.93 7.35272,257.264 7,250.5C 6.33333,197.833 6.33333,145.167 7,92.5C 10.2205,54.6268 29.0539,27.7934 63.5,12C 72.1266,9.11452 80.7933,6.94786 89.5,5.5 Z"/></g>
<g><path style="opacity:1" fill="#4e5ca6" d="M 235.5,69.5 C 236.151,85.2031 235.484,100.536 233.5,115.5C 214.506,114.461 195.506,113.461 176.5,112.5C 167.935,112.128 159.602,113.295 151.5,116C 146.219,119.311 143.886,124.144 144.5,130.5C 143.886,138.445 147.219,143.945 154.5,147C 227.041,139.868 256.875,172.035 244,243.5C 239.474,263.028 227.641,275.861 208.5,282C 169.594,289.816 130.928,288.65 92.5,278.5C 92.5,277.5 92.5,276.5 92.5,275.5C 93.8333,261.833 93.8333,248.167 92.5,234.5C 94.3972,233.195 96.7305,232.529 99.5,232.5C 124.452,234.526 149.452,235.026 174.5,234C 189.858,232.305 195.025,224.138 190,209.5C 186.887,206.224 183.054,204.058 178.5,203C 167.5,202.667 156.5,202.333 145.5,202C 114.193,200.353 95.6931,184.187 90,153.5C 88.8355,136.729 89.5021,120.062 92,103.5C 98.9962,83.8374 112.496,71.0041 132.5,65C 137.1,63.6833 141.766,62.6833 146.5,62C 176.583,59.9235 206.249,62.4235 235.5,69.5 Z"/></g>
<g><path style="opacity:1" fill="#cacee0" d="M 235.5,69.5 C 236.496,84.9911 236.83,100.658 236.5,116.5C 235.209,116.737 234.209,116.404 233.5,115.5C 235.484,100.536 236.151,85.2031 235.5,69.5 Z"/></g>
<g><path style="opacity:1" fill="#707bb6" d="M 91.5,235.5 C 91.5,234.833 91.8333,234.5 92.5,234.5C 93.8333,248.167 93.8333,261.833 92.5,275.5C 92.8289,261.99 92.4956,248.656 91.5,235.5 Z"/></g>
<g><path style="opacity:1" fill="#515fa7" d="M 91.5,235.5 C 92.4956,248.656 92.8289,261.99 92.5,275.5C 88.6145,269.147 86.9478,262.147 87.5,254.5C 86.8172,247.701 88.1505,241.367 91.5,235.5 Z"/></g>
</svg>
